:SAMPLES-PER-SECOND 30
:FULLY-SPECIFIED
:DEGREES
291
root  -17.6389 34.4623 -14.5494 -171.155 -0.349854 179
RightUpLeg  -9.27013 -17.7625 -2.94149
RightLeg  9.00102 -3.29502 -0.305113
RightFoot  3.18435 0.013408 -0.0477944
RightToes  -29.0826 -0.140625 -0.250111
Spine  -2.80715 -0.0253746 -0.373431
Spine1  -5.58669 -0.175629 -0.167147
HEad  -62.3038 -0.489602 8.21766
LeftShoulder1  -1.94126e-019 -3.10601e-018 -2.51263e-017
LeftArm  -29.0632 30.724 -75.6096
LeftForeArm  21.1719 -10.0476 -1.76067
LeftHand  -0.448868 0.790029 11.3333
RightShoulder  -4.96962e-017 0 -2.36833e-017
RightArm  -52.8644 -27.7372 68.5978
RightForeArm  57.4433 5.57857 0.955785
RightHand  0.15392 -6.5021 -17.5701
LeftUpLeg  -8.41561 -0.353719 2.30416
LeftLeg  7.8874 12.4873 0.909815
LeftFoot  3.77297 -0.0203573 0.909835
LeftToes  -21.6876 1.7763e-006 6.54387e-008
292
root  -17.6418 34.4644 -14.5814 -171.145 -0.665466 178.973
RightUpLeg  -9.12688 -18.0024 -2.97773
RightLeg  8.9214 -3.36746 -0.307111
RightFoot  3.16436 0.0137207 -0.0507956
RightToes  -29.042 -0.140583 -0.250113
Spine  -2.80943 -0.0669576 -0.344705
Spine1  -5.59286 -0.259284 -0.110638
HEad  -62.7019 -0.355319 8.03615
LeftShoulder1  -1.94126e-019 -3.10601e-018 -2.51263e-017
LeftArm  -29.1643 30.9383 -75.6481
LeftForeArm  20.3082 -10.4755 -1.83328
LeftHand  -0.447914 0.882428 11.5323
RightShoulder  -4.96962e-017 0 -2.36833e-017
RightArm  -53.6585 -27.9055 68.8506
RightForeArm  55.284 6.01782 1.03823
RightHand  0.166223 -6.58181 -17.6005
LeftUpLeg  -8.3832 -0.584353 2.29774
LeftLeg  7.80469 12.4192 0.88706
LeftFoot  3.78668 -0.0194894 0.910091
LeftToes  -21.6222 1.7763e-006 6.54387e-008
293
root  -17.6427 34.4727 -14.6144 -171.137 -0.878357 178.961
RightUpLeg  -8.91468 -18.156 -2.99257
RightLeg  8.66283 -3.43138 -0.297338
RightFoot  3.24605 0.0145493 -0.0609999
RightToes  -29.1318 -0.140523 -0.250094
Spine  -2.86267 -0.0921117 -0.310372
Spine1  -5.70278 -0.313997 -0.0471847
HEad  -62.5937 -0.256374 7.8634
LeftShoulder1  -1.94126e-019 -3.10601e-018 -2.51263e-017
LeftArm  -29.9841 31.3128 -76.0375
LeftForeArm  19.1008 -10.883 -1.90222
LeftHand  -0.439527 1.17529 12.0736
RightShoulder  -4.96962e-017 0 -2.36833e-017
RightArm  -54.6171 -27.9729 69.1432
RightForeArm  53.8165 6.04888 1.04719
RightHand  0.181603 -6.67181 -17.7498
LeftUpLeg  -8.26457 -0.62305 2.30493
LeftLeg  7.57181 12.2487 0.825447
LeftFoot  3.89589 -0.0192976 0.921141
LeftToes  -21.7616 1.7763e-006 6.54387e-008
294
root  -17.6425 34.4758 -14.6526 -171.097 -1.00531 178.949
RightUpLeg  -8.80191 -18.3184 -3.0098
RightLeg  8.53224 -3.3999 -0.286798
RightFoot  3.25053 0.0145918 -0.0598073
RightToes  -29.0145 -0.140444 -0.250054
Spine  -2.94279 -0.12422 -0.269602
Spine1  -5.86495 -0.375613 0.0297172
HEad  -62.0861 -0.086016 7.5909
LeftShoulder1  -1.94126e-019 -3.10601e-018 -2.51263e-017
LeftArm  -29.9929 31.7587 -76.6411
LeftForeArm  19.0636 -11.0411 -1.92834
LeftHand  -0.43355 1.38237 12.5038
RightShoulder  -4.96962e-017 0 -2.36833e-017
RightArm  -55.0928 -27.9965 69.5007
RightForeArm  53.6615 5.96055 1.03241
RightHand  0.196155 -6.76804 -17.7472
LeftUpLeg  -8.23163 -0.598718 2.29896
LeftLeg  7.50622 12.1157 0.802795
LeftFoot  3.90302 -0.0178693 0.913206
LeftToes  -21.7329 1.7763e-006 6.54387e-008
295
root  -17.6415 34.4635 -14.6911 -171.031 -1.04561 178.965
RightUpLeg  -8.84409 -18.3548 -2.99141
RightLeg  8.63048 -3.3961 -0.292343
RightFoot  3.15817 0.0141279 -0.0512259
RightToes  -29.1429 -0.140349 -0.249993
Spine  -3.00049 -0.144133 -0.217669
Spine1  -5.97981 -0.402444 0.132673
HEad  -61.81 0.202614 7.28596
LeftShoulder1  -1.94126e-019 -3.10601e-018 -2.51263e-017
LeftArm  -28.8174 32.1098 -77.3091
LeftForeArm  19.6709 -10.9892 -1.91852
LeftHand  -0.442642 1.26904 12.4277
RightShoulder  -4.96962e-017 0 -2.36833e-017
RightArm  -55.1033 -28.0511 69.9821
RightForeArm  53.6933 6.04655 1.04667
RightHand  0.172122 -6.62777 -17.5173
LeftUpLeg  -8.33375 -0.679594 2.32954
LeftLeg  7.70985 12.1399 0.847361
LeftFoot  3.73401 -0.0147986 0.879936
LeftToes  -21.6513 1.7763e-006 6.54387e-008
296
root  -17.6468 34.4454 -14.7213 -171.003 -1.04892 178.97
RightUpLeg  -8.93575 -18.4047 -3.00058
RightLeg  8.86155 -3.35839 -0.302744
RightFoot  3.01441 0.0132675 -0.0368336
RightToes  -29.1739 -0.140238 -0.249914
Spine  -2.9861 -0.136419 -0.187882
Spine1  -5.94925 -0.371834 0.194427
HEad  -61.9866 0.410305 7.10218
LeftShoulder1  -1.94126e-019 -3.10601e-018 -2.51263e-017
LeftArm  -28.2989 32.2417 -78.0272
LeftForeArm  20.031 -10.8525 -1.89581
LeftHand  -0.444584 0.967439 11.6582
RightShoulder  -4.96962e-017 0 -2.36833e-017
RightArm  -54.9767 -28.1083 70.6249
RightForeArm  53.7617 6.34037 1.09749
RightHand  0.144975 -6.47324 -17.1376
LeftUpLeg  -8.46026 -0.658188 2.32555
LeftLeg  8.01632 12.1246 0.910966
LeftFoot  3.54457 -0.0112988 0.840142
LeftToes  -21.788 1.7763e-006 6.54387e-008
297
root  -17.6522 34.4309 -14.7424 -171.025 -1.01456 178.965
RightUpLeg  -8.97531 -18.3247 -3.03507
RightLeg  9.05465 -3.39946 -0.318011
RightFoot  2.90256 0.0127553 -0.0272816
RightToes  -29.1545 -0.140112 -0.249816
Spine  -2.93526 -0.116897 -0.182159
Spine1  -5.84577 -0.315737 0.212969
HEad  -62.2723 0.553868 7.21924
LeftShoulder1  -1.94126e-019 -3.10601e-018 -2.51263e-017
LeftArm  -28.632 32.2349 -78.7237
LeftForeArm  19.3633 -10.6232 -1.85871
LeftHand  -0.44785 0.657465 11.0028
RightShoulder  -4.96962e-017 0 -2.36833e-017
RightArm  -54.839 -28.0974 71.3445
RightForeArm  53.8599 6.56989 1.13733
RightHand  0.129424 -6.37226 -17.055
LeftUpLeg  -8.50897 -0.67139 2.31332
LeftLeg  8.25424 12.1572 0.963746
LeftFoot  3.39347 -0.00859153 0.812766
LeftToes  -21.7161 1.7763e-006 6.54387e-008
298
root  -17.657 34.4251 -14.7633 -171.056 -0.943558 178.949
RightUpLeg  -8.9493 -18.2863 -3.08159
RightLeg  9.11299 -3.36593 -0.318329
RightFoot  2.84705 0.0123491 -0.0191193
RightToes  -29.1012 -0.139973 -0.249701
Spine  -2.89381 -0.0865678 -0.184844
Spine1  -5.7623 -0.244428 0.213832
HEad  -62.5579 0.591202 7.44075
LeftShoulder1  -1.94126e-019 -3.10601e-018 -2.51263e-017
LeftArm  -29.3644 32.1629 -79.4192
LeftForeArm  19.0879 -10.3653 -1.81571
LeftHand  -0.444355 0.744024 11.112
RightShoulder  -4.96962e-017 0 -2.36833e-017
RightArm  -54.6547 -28.0701 71.9606
RightForeArm  54.0494 6.64068 1.14894
RightHand  0.113831 -6.26934 -16.982
LeftUpLeg  -8.48013 -0.746661 2.28541
LeftLeg  8.35403 12.2896 0.995452
LeftFoot  3.31786 -0.00727634 0.80708
LeftToes  -21.5279 1.7763e-006 6.54387e-008
299
root  -17.6615 34.4258 -14.7813 -171.057 -0.874878 178.934
RightUpLeg  -8.89835 -18.2615 -3.11077
RightLeg  9.04428 -3.34902 -0.312674
RightFoot  2.88894 0.0123602 -0.0168018
RightToes  -29.0766 -0.139822 -0.249571
Spine  -2.86679 -0.0559932 -0.185693
Spine1  -5.7095 -0.180589 0.215324
HEad  -62.7646 0.465965 7.50719
LeftShoulder1  -1.94126e-019 -3.10601e-018 -2.51263e-017
LeftArm  -29.8938 32.0694 -79.9917
LeftForeArm  19.3003 -10.2181 -1.79076
LeftHand  -0.439261 0.956278 11.4899
RightShoulder  -4.96962e-017 0 -2.36833e-017
RightArm  -54.5444 -28.0492 72.4663
RightForeArm  54.2862 6.64448 1.14877
RightHand  0.102899 -6.19649 -16.933
LeftUpLeg  -8.44062 -0.735867 2.25592
LeftLeg  8.35626 12.3458 1.00042
LeftFoot  3.30851 -0.00617889 0.804787
LeftToes  -21.4802 1.7763e-006 6.54387e-008
300
root  -17.6643 34.4263 -14.7996 -171.031 -0.817856 178.927
RightUpLeg  -8.83727 -18.2942 -3.1219
RightLeg  8.9013 -3.26974 -0.297027
RightFoot  2.95452 0.0125232 -0.0165467
RightToes  -29.0312 -0.139658 -0.249425
Spine  -2.85349 -0.0266557 -0.174964
Spine1  -5.68495 -0.123626 0.237313
HEad  -62.9372 0.325178 7.54555
LeftShoulder1  -1.94126e-019 -3.10601e-018 -2.51263e-017
LeftArm  -30.1301 31.9793 -80.3511
LeftForeArm  19.5714 -10.1698 -1.78238
LeftHand  -0.440594 0.905232 11.3985
RightShoulder  -4.96962e-017 0 -2.36833e-017
RightArm  -54.3866 -28.0536 72.8312
RightForeArm  54.4487 6.66832 1.15235
RightHand  0.0937947 -6.13866 -16.8325
LeftUpLeg  -8.41975 -0.719671 2.23763
LeftLeg  8.34168 12.3916 1.00092
LeftFoot  3.29853 -0.00515783 0.803643
LeftToes  -21.4535 1.7763e-006 6.54387e-008
